<svg class="graph1" xmlns="http://www.w3.org/2000/svg" xmlns:xlink="http://www.w3.org/1999/xlink" width="490.44" height="233.148" viewBox="0 0 490.44 233.148"><defs><clipPath id="a"><path d="M0,69.172H490.44V-163.976H0Z" transform="translate(0 163.976)" fill="none"/></clipPath><clipPath id="b"><rect width="167.996" height="140.032" fill="aqua"/></clipPath></defs><g transform="translate(0 163.976)"><g transform="translate(0 -163.976)" clip-path="url(#a)"><g transform="translate(44.576 47.829)"><path d="M.418.049-.137.467C-.423.339-.706.209-.99.081a8.007,8.007,0,0,1,.944-.2C.1-.128.263-.009.418.049" transform="translate(0.99 0.116)" fill="#ff0087"/></g><g transform="translate(35.065 149.389)"><path d="M0,0,.048.02C.045.026.04.03.037.036Z" fill="#ff0087"/></g><g transform="translate(15.708 21.035)"><path d="M0,0,.06.024c0,.007-.011.013-.016.02Z" fill="#ff0087"/></g><g transform="translate(211.62 90.908)"><path d="M4.026,21.1-9.544-48.711a68.792,68.792,0,0,1,13.57-1.307Z" transform="translate(9.544 50.018)"/></g><g transform="translate(164.88 92.215)"><path d="M17.893,20.712l-60.31-37.686A68.884,68.884,0,0,1,4.323-49.1Z" transform="translate(42.417 49.099)" fill="#ff0988"/></g><g transform="translate(141.114 94.537)"><g clip-path="url(#b)"><g transform="translate(12.797 9.953)"><path d="M21.148,17.07l41.8-57.535A71.117,71.117,0,0,1-20.654,74.6,70.629,70.629,0,0,1-39.163-20.616Z" transform="translate(50.132 40.465)" fill="aqua"/></g></g></g><g transform="translate(225.19 90.908)"><path d="M0,21.1V-50.018A68.141,68.141,0,0,1,41.8-36.435Z" transform="translate(0 50.018)" fill="#0062d3"/></g></g><g transform="translate(257.734 -154.56)"><text transform="translate(0 22)" fill="#2b2e34" font-size="21" font-family="Manrope-Bold" font-weight="800"><tspan x="0" y="0">Zdec</tspan></text><text transform="translate(51.548 22)" fill="#2b2e34" font-size="21" font-family="Manrope-Bold" font-weight="800"><tspan x="0" y="0">y</tspan></text><text transform="translate(62.998 22)" fill="#2b2e34" font-size="21" font-family="Manrope-Bold" font-weight="800"><tspan x="0" y="0">do</tspan></text><text transform="translate(88.647 22)" fill="#2b2e34" font-size="21" font-family="Manrope-Bold" font-weight="800"><tspan x="0" y="0">w</tspan></text><text transform="translate(104.97 22)" fill="#2b2e34" font-size="21" font-family="Manrope-Bold" font-weight="800"><tspan x="0" y="0">anie </tspan></text><text transform="translate(0 46.983)" fill="#2b2e34" font-size="21" font-family="Manrope-Bold" font-weight="800"><tspan x="0" y="0">po</tspan></text><text transform="translate(25.628 45.983)" fill="#2b2e34" font-size="20" font-family="Manrope-Bold" font-weight="800"><tspan x="0" y="0">zy</tspan></text><text transform="translate(49.258 46.983)" fill="#2b2e34" font-size="21" font-family="Manrope-Bold" font-weight="800"><tspan x="0" y="0">t</tspan></text><text transform="translate(58.189 46.983)" fill="#2b2e34" font-size="21" font-family="Manrope-Bold" font-weight="800"><tspan x="0" y="0">ywne</tspan></text></g><text transform="translate(370.426 -107.578)" fill="#2b2e34" font-size="21" font-family="Manrope-Bold" font-weight="800"><tspan x="0" y="0"> </tspan></text><text transform="translate(257.734 -83.595)" fill="#2b2e34" font-size="20" font-family="Manrope-Bold" font-weight="800"><tspan x="0" y="0">10%</tspan></text><g transform="translate(111.524 -154.013)"><text transform="translate(0 18)" fill="#2b2e34" font-size="17" font-family="Manrope-Light, Manrope" font-weight="300"><tspan x="0" y="0">Zdec</tspan></text><text transform="translate(39.669 17)" fill="#2b2e34" font-size="16" font-family="Manrope-Light, Manrope" font-weight="300"><tspan x="0" y="0">y</tspan></text><text transform="translate(48.283 17)" fill="#2b2e34" font-size="16" font-family="Manrope-Light, Manrope" font-weight="300"><tspan x="0" y="0">do</tspan></text><text transform="translate(68.182 17)" fill="#2b2e34" font-size="16" font-family="Manrope-Light, Manrope" font-weight="300"><tspan x="0" y="0">w</tspan></text><text transform="translate(80.769 18)" fill="#2b2e34" font-size="17" font-family="Manrope-Light, Manrope" font-weight="300"><tspan x="0" y="0">anie </tspan></text><text transform="translate(25.729 37.819)" fill="#2b2e34" font-size="16" font-family="Manrope-Light, Manrope" font-weight="300"><tspan x="0" y="0">negatywne</tspan></text></g><text transform="translate(225.768 -120.194)" fill="#2b2e34" font-size="12" font-family="Manrope-Light, Manrope" font-weight="300"><tspan x="0" y="0"> </tspan></text><g transform="translate(54.306 -112.375)"><text transform="translate(146.392 17)" fill="#2b2e34" font-size="16" font-family="Manrope-Light, Manrope" font-weight="300"><tspan x="0" y="0">3%</tspan></text><text transform="translate(36.104 49.402)" fill="#2b2e34" font-size="17" font-family="Manrope-Light, Manrope" font-weight="300"><tspan x="0" y="0">Racz</tspan></text><text transform="translate(74.35 49.402)" fill="#2b2e34" font-size="17" font-family="Manrope-Light, Manrope" font-weight="300"><tspan x="0" y="0">ej </tspan></text><text transform="translate(0 69.221)" fill="#2b2e34" font-size="16" font-family="Manrope-Light, Manrope" font-weight="300"><tspan x="0" y="0">negatywne</tspan></text></g><text transform="translate(142.838 -47.16)" fill="#2b2e34" font-size="12" font-family="Manrope-Light, Manrope" font-weight="300"><tspan x="0" y="0"> </tspan></text><text transform="translate(111.28 -21.341)" fill="#2b2e34" font-size="17" font-family="Manrope-Light, Manrope" font-weight="300"><tspan x="0" y="0">13%</tspan></text><g transform="translate(313.047 -39.157)"><text transform="translate(0 22)" fill="#2b2e34" font-size="21" font-family="Manrope-Bold" font-weight="800"><tspan x="0" y="0">Racz</tspan></text><text transform="translate(48.529 22)" fill="#2b2e34" font-size="21" font-family="Manrope-Bold" font-weight="800"><tspan x="0" y="0">ej </tspan></text><text transform="translate(0 46.983)" fill="#2b2e34" font-size="21" font-family="Manrope-Bold" font-weight="800"><tspan x="0" y="0">po</tspan></text><text transform="translate(25.628 45.983)" fill="#2b2e34" font-size="20" font-family="Manrope-Bold" font-weight="800"><tspan x="0" y="0">zy</tspan></text><text transform="translate(49.258 46.983)" fill="#2b2e34" font-size="21" font-family="Manrope-Bold" font-weight="800"><tspan x="0" y="0">t</tspan></text><text transform="translate(58.189 46.983)" fill="#2b2e34" font-size="21" font-family="Manrope-Bold" font-weight="800"><tspan x="0" y="0">ywne</tspan></text></g><text transform="translate(425.739 7.826)" fill="#2b2e34" font-size="21" font-family="Manrope-Bold" font-weight="800"><tspan x="0" y="0"> </tspan></text><g transform="translate(313.047 10.808)"><text transform="translate(0 21)" fill="#2b2e34" font-size="20" font-family="Manrope-Bold" font-weight="800" letter-spacing="-0.04em"><tspan x="0" y="0">74</tspan></text><text transform="translate(23.296 22)" fill="#2b2e34" font-size="21" font-family="Manrope-Bold" font-weight="800" letter-spacing="-0.04em"><tspan x="0" y="0">%</tspan></text></g><g transform="translate(0 -163.976)" clip-path="url(#a)"><g transform="translate(180.332 117.249)"><path d="M13.285,26.571A44.78,44.78,0,0,0,58.065-18.209,44.779,44.779,0,0,0,13.285-62.988,44.779,44.779,0,0,0-31.494-18.209,44.78,44.78,0,0,0,13.285,26.571Z" transform="translate(31.494 62.988)" fill="#fbba02"/></g></g></g></svg>