<svg xmlns="http://www.w3.org/2000/svg" xmlns:xlink="http://www.w3.org/1999/xlink" width="339.538" height="275.451" viewBox="0 0 339.538 275.451">
  <defs>
    <clipPath id="clip-path">
      <rect id="Rectangle_16" data-name="Rectangle 16" width="69.292" height="68.064" transform="translate(104.265 -91.045)" fill="none"/>
    </clipPath>
    <clipPath id="clip-path-2">
      <rect id="Rectangle_17" data-name="Rectangle 17" width="96.844" height="170.589" transform="translate(117.146 -210.303)" fill="none"/>
    </clipPath>
    <clipPath id="clip-path-3">
      <rect id="Rectangle_18" data-name="Rectangle 18" width="43.883" height="49.597" transform="translate(166.259 -234.028)" fill="none"/>
    </clipPath>
    <clipPath id="clip-path-4">
      <rect id="Rectangle_19" data-name="Rectangle 19" width="50.25" height="42.415" transform="translate(-5.862 -87.171)" fill="none"/>
    </clipPath>
  </defs>
  <g id="Group_424" data-name="Group 424" transform="translate(-1293.557 -4214.848)">
    <g id="Group_226" data-name="Group 226" transform="matrix(0.951, -0.309, 0.309, 0.951, 1408.61, 4253.831)">
      <path id="Path_199" data-name="Path 199" d="M0,0A89.551,89.551,0,0,1,29.292,4.9L12.4,52.832A38.824,38.824,0,0,0,0,50.8,38.883,38.883,0,0,0-38.884,89.683,38.877,38.877,0,0,0-.545,128.553v50.806A89.68,89.68,0,0,1-89.683,89.683,89.682,89.682,0,0,1,0,0M-.545,182.083v-.46A91.944,91.944,0,0,1,0-2.264,91.533,91.533,0,0,1,30.038,2.78l.153-.434A92.018,92.018,0,0,0,0-2.724,92.511,92.511,0,0,0-92.406,89.683a92.509,92.509,0,0,0,91.861,92.4" fill="#fff"/>
    </g>
    <g id="Group_230" data-name="Group 230" transform="matrix(0.951, -0.309, 0.309, 0.951, 1367.066, 4490.299)" opacity="0.4">
      <g id="Group_229" data-name="Group 229">
        <g id="Group_228" data-name="Group 228" clip-path="url(#clip-path)">
          <g id="Group_227" data-name="Group 227" transform="translate(163.033 -48.22)">
            <path id="Path_200" data-name="Path 200" d="M0,0A89.257,89.257,0,0,1-49.768,15.516v-50.8a38.7,38.7,0,0,0,20.925-6.542ZM-49.768,17.779v.46A91.868,91.868,0,0,0,1.524,2.211l-.261-.379A91.409,91.409,0,0,1-49.768,17.779" fill="#fff"/>
          </g>
        </g>
      </g>
    </g>
    <g id="Group_234" data-name="Group 234" transform="matrix(0.951, -0.309, 0.309, 0.951, 1367.066, 4490.299)" opacity="0.2">
      <g id="Group_233" data-name="Group 233">
        <g id="Group_232" data-name="Group 232" clip-path="url(#clip-path-2)">
          <g id="Group_231" data-name="Group 231" transform="translate(164.047 -48.924)">
            <path id="Path_201" data-name="Path 201" d="M0,0-28.847-41.831A38.825,38.825,0,0,0-12.58-73.451,38.9,38.9,0,0,0-37.9-109.9l16.886-47.929A89.715,89.715,0,0,1,38.219-73.451,89.574,89.574,0,0,1,0,0M-20.269-159.945A92.1,92.1,0,0,1,40.483-73.451,91.9,91.9,0,0,1,1.263,1.832l.261.378A92.362,92.362,0,0,0,40.943-73.451a92.564,92.564,0,0,0-61.059-86.928Z" fill="#fff"/>
          </g>
        </g>
      </g>
    </g>
    <g id="Group_235" data-name="Group 235" transform="matrix(0.951, -0.309, 0.309, 0.951, 1494.465, 4412.354)">
      <path id="Path_202" data-name="Path 202" d="M0,0,19.946,34.548" fill="none" stroke="#fff" stroke-width="0.858"/>
    </g>
    <g id="Group_239" data-name="Group 239" transform="matrix(0.899, 0.438, -0.438, 0.899, 1285.535, 4400.146)" opacity="0.5">
      <g id="Group_238" data-name="Group 238">
        <g id="Group_237" data-name="Group 237" clip-path="url(#clip-path-3)">
          <g id="Group_236" data-name="Group 236" transform="translate(198.399 -222.763)">
            <path id="Path_203" data-name="Path 203" d="M0,0-24.008,31.859" fill="none" stroke="#fff" stroke-width="0.858"/>
          </g>
        </g>
      </g>
    </g>
    <g id="Group_243" data-name="Group 243" transform="matrix(0.951, -0.309, 0.309, 0.951, 1367.066, 4490.299)" opacity="0.75">
      <g id="Group_242" data-name="Group 242">
        <g id="Group_241" data-name="Group 241" clip-path="url(#clip-path-4)">
          <g id="Group_240" data-name="Group 240" transform="translate(33.312 -75.44)">
            <path id="Path_204" data-name="Path 204" d="M0,0-33.072,22.307" fill="none" stroke="#fff" stroke-width="0.858"/>
          </g>
        </g>
      </g>
    </g>
    <path id="Path_205" data-name="Path 205" d="M0,0H204.99V-223.021H0Z" transform="matrix(0.951, -0.309, 0.309, 0.951, 1367.066, 4490.299)" fill="none"/>
    <g id="Group_266" data-name="Group 266" transform="translate(-993.054 261.787)">
      <text id="NIE_P" data-name="NIE P" transform="translate(2423.14 4202.424)" fill="#fff" font-size="18" font-family="Manrope-Bold" font-weight="800"><tspan x="0" y="0">NIE P</tspan></text>
      <text id="AMIĘTAM" transform="translate(2465.617 4202.424)" fill="#fff" font-size="18" font-family="Manrope-Bold" font-weight="800"><tspan x="0" y="0">AMIĘTAM</tspan></text>
      <text id="_" data-name=" " transform="translate(2546.791 4201.423)" fill="#fff" font-size="17" font-family="Manrope-Bold" font-weight="800"><tspan x="0" y="0"> </tspan></text>
      <text id="_9_63_" data-name="9,63%" transform="translate(2490.617 4224.328)" fill="#fff" font-size="18" font-family="Manrope-Bold" font-weight="800"><tspan x="0" y="0">9,63%</tspan></text>
      <text id="_2" data-name=" " transform="translate(2478.832 4223.328)" fill="#fff" font-size="17" font-family="Manrope-Bold" font-weight="800"><tspan x="0" y="0"> </tspan></text>
    </g>
    <g id="Group_265" data-name="Group 265" transform="translate(-919 545.363)">
      <text id="NIE" transform="translate(2490.095 3731.821)" fill="#fff" font-size="18" font-family="Manrope-Bold" font-weight="800"><tspan x="0" y="0">NIE</tspan></text>
      <text id="_3" data-name=" " transform="translate(2518.406 3730.821)" fill="#fff" font-size="17" font-family="Manrope-Bold" font-weight="800"><tspan x="0" y="0"> </tspan></text>
      <text id="_34_76_" data-name="34,76%" transform="translate(2490.095 3753.725)" fill="#fff" font-size="18" font-family="Manrope-Bold" font-weight="800"><tspan x="0" y="0">34,76%</tspan></text>
    </g>
    <g id="Group_264" data-name="Group 264" transform="translate(-746 356.322)">
      <g id="Group" transform="translate(2068.827 4088.889)">
        <text id="TA" transform="translate(0 19)" fill="#fff" font-size="18" font-family="Manrope-Bold" font-weight="800" letter-spacing="-0.02em"><tspan x="0" y="0">TA</tspan></text>
        <text id="K" transform="translate(22.662 19)" fill="#fff" font-size="18" font-family="Manrope-Bold" font-weight="800" letter-spacing="-0.02em"><tspan x="0" y="0">K</tspan></text>
      </g>
      <text id="_4" data-name=" " transform="translate(2102.624 4106.889)" fill="#fff" font-size="17" font-family="Manrope-Bold" font-weight="800"><tspan x="0" y="0"> </tspan></text>
      <text id="_5" data-name=" " transform="translate(2102.624 4128.793)" fill="#fff" font-size="17" font-family="Manrope-Bold" font-weight="800"><tspan x="0" y="0"> </tspan></text>
      <text id="_55_61_" data-name="55,61%" transform="translate(2039.557 4129.793)" fill="#fff" font-size="18" font-family="Manrope-Bold" font-weight="800"><tspan x="0" y="0">55,61%</tspan></text>
    </g>
  </g>
</svg>
