<svg xmlns="http://www.w3.org/2000/svg" xmlns:xlink="http://www.w3.org/1999/xlink" width="22.374" height="22.313" viewBox="0 0 22.374 22.313">
  <defs>
    <clipPath id="clip-path">
      <rect id="Rectangle_57" data-name="Rectangle 57" width="22.374" height="22.313" fill="none"/>
    </clipPath>
  </defs>
  <g id="linkedin" transform="translate(0 0)">
    <g id="Group_428" data-name="Group 428" transform="translate(0 0)" clip-path="url(#clip-path)">
      <path id="Path_342" data-name="Path 342" d="M32.733,27.562c.31-.348.566-.7.884-1a4.85,4.85,0,0,1,3.489-1.377,8.067,8.067,0,0,1,2.194.267,4.288,4.288,0,0,1,3.045,3.2,13.421,13.421,0,0,1,.406,3.669c0,2.608-.008,5.216,0,7.823,0,.244-.068.308-.308.306q-2.015-.016-4.03,0c-.237,0-.288-.071-.287-.295q.011-3.722,0-7.444a6.687,6.687,0,0,0-.216-1.848,2.078,2.078,0,0,0-2.286-1.62A2.5,2.5,0,0,0,33,31.739a9.306,9.306,0,0,0-.071,1.164c0,2.413,0,4.827.006,7.24,0,.241-.059.312-.305.31q-2.03-.018-4.06,0c-.217,0-.28-.057-.279-.276q.009-7.167,0-14.334c0-.236.077-.291.3-.289q1.928.014,3.855,0c.237,0,.3.074.293.3-.013.571,0,1.142,0,1.713" transform="translate(-20.377 -18.14)" fill="#fefefe"/>
      <path id="Path_343" data-name="Path 343" d="M5.91,33.968c0,2.364,0,4.727.006,7.091,0,.263-.064.342-.336.339-1.343-.015-2.686-.011-4.029,0-.215,0-.28-.052-.28-.275q.01-7.179,0-14.358c0-.2.048-.268.258-.267,1.362.009,2.725.011,4.087,0,.261,0,.3.1.3.323q-.01,3.575,0,7.149" transform="translate(-0.916 -19.085)" fill="#fefefe"/>
      <path id="Path_344" data-name="Path 344" d="M5.365,2.669A2.683,2.683,0,1,1,2.687,0,2.692,2.692,0,0,1,5.365,2.669" transform="translate(0 0)" fill="#fefefe"/>
    </g>
  </g>
</svg>
