<svg xmlns="http://www.w3.org/2000/svg" id="Component_37_1" width="25" height="25"><defs><style>.cls-2{fill:#ff0988}</style></defs><g id="Rectangle_38" fill="none" stroke="#ff0988"><path stroke="none" d="M0 0h25v25H0z"/><path d="M.5.5h24v24H.5z"/></g><g id="Component_24_6" transform="translate(7 7)"><path id="Path_734" d="M188.336 169.246v-4.108c0-2.01-.433-3.558-2.782-3.558a2.439 2.439 0 00-2.2 1.208h-.033v-1.02H181.1v7.479h2.32v-3.7c0-.975.185-1.918 1.392-1.918 1.19 0 1.208 1.113 1.208 1.98v3.641z" class="cls-2" transform="translate(-177.137 -158.044)"/><path id="Path_735" d="M8.448 170.176h2.323v7.479H8.448z" class="cls-2" transform="translate(-8.263 -166.453)"/><path id="Path_736" d="M1.345 0A1.352 1.352 0 102.69 1.345 1.346 1.346 0 001.345 0z" class="cls-2"/></g></svg>