<svg xmlns="http://www.w3.org/2000/svg" width="25" height="25"><g fill="none" stroke="#ff0988"><path d="M0 0h25v25H0z" stroke="none"/><path d="M.5.5h24v24H.5z"/></g><path fill="#ff0988" d="M18.974 9.078a5.047 5.047 0 01-1.413.394 2.473 2.473 0 001.079-1.379 4.852 4.852 0 01-1.555.6 2.439 2.439 0 00-1.792-.785 2.473 2.473 0 00-2.451 2.495 2.61 2.61 0 00.057.569 6.9 6.9 0 01-5.055-2.609 2.544 2.544 0 00-.333 1.26A2.509 2.509 0 008.6 11.696a2.391 2.391 0 01-1.108-.307v.027a2.5 2.5 0 001.965 2.451 2.409 2.409 0 01-.643.082 2.134 2.134 0 01-.467-.041 2.482 2.482 0 002.292 1.737 4.876 4.876 0 01-3.041 1.063 4.519 4.519 0 01-.587-.035 6.821 6.821 0 003.762 1.119 7 7 0 006.98-7.1c0-.11 0-.217-.009-.322a4.939 4.939 0 001.23-1.292z"/></svg>