<svg id="twitter" xmlns="http://www.w3.org/2000/svg" xmlns:xlink="http://www.w3.org/1999/xlink" width="27.456" height="22.313" viewBox="0 0 27.456 22.313">
  <defs>
    <clipPath id="clip-path">
      <rect id="Rectangle_56" data-name="Rectangle 56" width="27.456" height="22.313" fill="none"/>
    </clipPath>
  </defs>
  <g id="Group_426" data-name="Group 426" clip-path="url(#clip-path)">
    <path id="Path_341" data-name="Path 341" d="M8.635,22.313C19,22.313,24.662,13.73,24.662,6.286q0-.366-.016-.728a11.468,11.468,0,0,0,2.81-2.916,11.244,11.244,0,0,1-3.235.887A5.653,5.653,0,0,0,26.7.412,11.291,11.291,0,0,1,23.121,1.78a5.638,5.638,0,0,0-9.6,5.137A15.992,15.992,0,0,1,1.911,1.032a5.637,5.637,0,0,0,1.744,7.52,5.593,5.593,0,0,1-2.551-.7c0,.024,0,.047,0,.072a5.636,5.636,0,0,0,4.519,5.522,5.628,5.628,0,0,1-2.544.1A5.639,5.639,0,0,0,8.34,17.45a11.3,11.3,0,0,1-7,2.411A11.435,11.435,0,0,1,0,19.783a15.946,15.946,0,0,0,8.635,2.53" fill="#fff"/>
  </g>
</svg>
