<svg id="Layer_1" data-name="Layer 1" xmlns="http://www.w3.org/2000/svg" viewBox="0 0 224 74.5"><defs><style>.cls-1{fill:#fff;}</style></defs><path class="cls-1" d="M141.08,26.35a.41.41,0,0,1,0-.17c.51-1.24,1-2.39,1.43-3.44l.57-1.35c.19-.45.36-.87.52-1.26s.31-.74.44-1,.22-.52.27-.66h-2.81a.45.45,0,0,1-.34-.13.49.49,0,0,1-.13-.34.49.49,0,0,1,.13-.33.45.45,0,0,1,.34-.13h3.52a.43.43,0,0,1,.39.2.63.63,0,0,1,.08.26.82.82,0,0,1,0,.18c-.53,1.25-1,2.4-1.45,3.46-.2.45-.39.9-.58,1.35s-.36.88-.52,1.26-.31.73-.44,1l-.27.65h2.82a.43.43,0,0,1,.33.13.45.45,0,0,1,.14.33.46.46,0,0,1-.14.34.43.43,0,0,1-.33.13h-3.52a.42.42,0,0,1-.39-.2A.63.63,0,0,1,141.08,26.35Z"/><path class="cls-1" d="M147.46,17.67a.45.45,0,0,1,.29-.21.51.51,0,0,1,.36.05.47.47,0,0,1,.21.3c.19.83.39,1.65.59,2.45.07.34.16.7.25,1.06l.27,1.1c.09.37.18.72.26,1.06s.16.66.23.94c.06-.28.14-.59.22-.94s.16-.69.25-1.06.17-.73.26-1.1.17-.72.26-1.06c.2-.8.4-1.62.6-2.45a.48.48,0,0,1,.16-.26.47.47,0,0,1,.3-.1.44.44,0,0,1,.45.36c.2.83.39,1.65.59,2.45.08.34.16.7.25,1.06s.19.73.27,1.1.18.72.26,1.06.16.66.23.94c.07-.28.14-.59.22-.94s.16-.69.25-1.06.17-.73.26-1.1.18-.72.26-1.06c.2-.8.4-1.62.61-2.45a.42.42,0,0,1,.2-.3.47.47,0,0,1,.35-.05.42.42,0,0,1,.29.21.45.45,0,0,1,.06.36l-2.05,8.5a.46.46,0,0,1-.17.26.45.45,0,0,1-.28.09.48.48,0,0,1-.29-.09.41.41,0,0,1-.17-.26l-.6-2.45c-.08-.34-.17-.69-.26-1.07s-.18-.74-.26-1.1-.17-.72-.25-1.06-.15-.66-.22-.94c-.07.28-.15.59-.23.94s-.17.69-.26,1.06-.17.73-.27,1.1-.18.73-.25,1.07c-.2.81-.39,1.63-.59,2.45a.52.52,0,0,1-.17.26.47.47,0,0,1-.28.09.53.53,0,0,1-.3-.09.44.44,0,0,1-.16-.26L147.41,18A.49.49,0,0,1,147.46,17.67Z"/><path class="cls-1" d="M159.28,26.88a.44.44,0,0,1-.33-.13.46.46,0,0,1-.14-.34V17.92a.46.46,0,0,1,.14-.34.44.44,0,0,1,.33-.13.43.43,0,0,1,.33.13.46.46,0,0,1,.14.34v8.49a.46.46,0,0,1-.14.34A.43.43,0,0,1,159.28,26.88Z"/><path class="cls-1" d="M167.42,26.3a.43.43,0,0,1,0,.35.52.52,0,0,1-.3.22.45.45,0,0,1-.36,0,.46.46,0,0,1-.21-.28l-.14-.49q-.07-.22-.15-.54c0-.21-.12-.43-.18-.69H163.2c-.07.26-.14.48-.19.69s-.09.39-.14.54-.1.34-.13.49a.52.52,0,0,1-.22.28.47.47,0,0,1-.37,0,.5.5,0,0,1-.29-.22.43.43,0,0,1,0-.35l2.34-8.5a.52.52,0,0,1,.17-.26.47.47,0,0,1,.28-.09.48.48,0,0,1,.29.09.52.52,0,0,1,.17.26Zm-1.64-2.41-.31-1.12c-.1-.38-.21-.76-.31-1.13l-.29-1.06c-.1-.34-.18-.64-.25-.91-.07.27-.16.57-.24.91l-.29,1.06c-.1.37-.21.75-.31,1.13l-.31,1.12Z"/><path class="cls-1" d="M169.11,26.35a.38.38,0,0,1,0-.17l1.44-3.44c.18-.45.37-.9.56-1.35l.53-1.26c.16-.39.3-.74.43-1l.28-.66h-2.81a.45.45,0,0,1-.47-.47.44.44,0,0,1,.13-.33.45.45,0,0,1,.34-.13h3.51a.43.43,0,0,1,.4.2.6.6,0,0,1,.07.26.82.82,0,0,1,0,.18c-.52,1.25-1,2.4-1.45,3.46L171.51,23c-.18.46-.36.88-.53,1.26s-.31.73-.43,1l-.27.65h2.81a.45.45,0,0,1,.34.13.44.44,0,0,1,.13.33.45.45,0,0,1-.47.47h-3.51a.43.43,0,0,1-.4-.2A.6.6,0,0,1,169.11,26.35Z"/><path class="cls-1" d="M175.88,18a.44.44,0,0,1,.13-.33.45.45,0,0,1,.34-.13h2.93a.44.44,0,0,1,.46.46.45.45,0,0,1-.13.34.44.44,0,0,1-.33.13h-2.47v3.11H179a.48.48,0,0,1,.34.81.49.49,0,0,1-.34.13h-2.17v3.4h2.47a.44.44,0,0,1,.46.46.45.45,0,0,1-.13.34.44.44,0,0,1-.33.13h-2.93a.45.45,0,0,1-.47-.47Z"/><path class="cls-1" d="M186.69,26.21a.47.47,0,0,1-.58.65.41.41,0,0,1-.26-.24l-2.11-4.35-.82,1.14v3a.45.45,0,0,1-.47.47.48.48,0,0,1-.33-.13.45.45,0,0,1-.13-.34V17.92a.45.45,0,0,1,.13-.34.48.48,0,0,1,.33-.13.45.45,0,0,1,.47.47V21.8l3-4.16a.46.46,0,0,1,.66-.1.43.43,0,0,1,.19.3.44.44,0,0,1-.09.35l-2.27,3.2Z"/><path class="cls-1" d="M192.9,26.82a.44.44,0,0,1-.33-.13.46.46,0,0,1-.14-.34V18a.45.45,0,0,1,.14-.33.44.44,0,0,1,.33-.13h2.93a.45.45,0,0,1,.34.13.44.44,0,0,1,.13.33.45.45,0,0,1-.47.47h-2.46v3.11h2.17a.43.43,0,0,1,.33.13.48.48,0,0,1,0,.68.47.47,0,0,1-.33.13h-2.17v3.86a.49.49,0,0,1-.13.34A.45.45,0,0,1,192.9,26.82Z"/><path class="cls-1" d="M198.91,26.88a.44.44,0,0,1-.33-.13.42.42,0,0,1-.14-.34V17.92a.42.42,0,0,1,.14-.34.44.44,0,0,1,.33-.13.43.43,0,0,1,.33.13.46.46,0,0,1,.14.34v8.49a.46.46,0,0,1-.14.34A.43.43,0,0,1,198.91,26.88Z"/><path class="cls-1" d="M206.54,20.55a2.2,2.2,0,0,1-.38,1.26,2.26,2.26,0,0,1-1,.81l1.35,3.63a.39.39,0,0,1,0,.35.45.45,0,0,1-.27.25.43.43,0,0,1-.35,0,.49.49,0,0,1-.25-.28l-1.41-3.79H203v3.63a.45.45,0,0,1-.47.47.48.48,0,0,1-.33-.13.45.45,0,0,1-.13-.34V18a.44.44,0,0,1,.13-.33.48.48,0,0,1,.33-.13h1.76a2.18,2.18,0,0,1,.87.17,2.34,2.34,0,0,1,.71.48,2.15,2.15,0,0,1,.47.71,2.11,2.11,0,0,1,.18.86Zm-2.23,1.29a1.26,1.26,0,0,0,1.29-1.29v-.82a1.28,1.28,0,0,0-1.29-1.29H203v3.4Z"/><path class="cls-1" d="M209.38,26.88a.45.45,0,0,1-.34-.13.49.49,0,0,1-.13-.34V17.92a.54.54,0,0,1,.1-.3.48.48,0,0,1,.58-.12.45.45,0,0,1,.22.21c.25.55.5,1.08.74,1.58s.42.89.63,1.36.4.85.55,1.15c.06-.15.14-.32.24-.52l.29-.63.32-.68c.1-.24.21-.46.32-.68.24-.5.49-1,.74-1.58a.45.45,0,0,1,.22-.21.48.48,0,0,1,.58.12.54.54,0,0,1,.1.3v8.49a.46.46,0,0,1-.14.34.44.44,0,0,1-.33.13.45.45,0,0,1-.47-.47V20c-.18.37-.35.74-.52,1.11l-.46,1c-.17.34-.32.67-.47,1a.46.46,0,0,1-.42.27.43.43,0,0,1-.43-.27c-.15-.32-.3-.65-.47-1s-.29-.63-.47-1L209.85,20v6.4a.46.46,0,0,1-.14.34A.44.44,0,0,1,209.38,26.88Z"/><path class="cls-1" d="M141.49,34.49a.49.49,0,0,1,.13-.34A.45.45,0,0,1,142,34h1.76a2.27,2.27,0,0,1,.86.17,2.22,2.22,0,0,1,.71.48,2.34,2.34,0,0,1,.48.71,2.11,2.11,0,0,1,.18.86v.83a2.12,2.12,0,0,1-.18.87,2.29,2.29,0,0,1-.48.7,2.22,2.22,0,0,1-.71.48,2.27,2.27,0,0,1-.86.17h-1.29v3.64a.44.44,0,0,1-.13.33.51.51,0,0,1-.68,0,.49.49,0,0,1-.13-.33ZM145,36.24a1.26,1.26,0,0,0-.38-.9,1.42,1.42,0,0,0-.41-.28,1.24,1.24,0,0,0-.5-.1h-1.29v3.39h1.29a1.26,1.26,0,0,0,.91-.37,1.24,1.24,0,0,0,.38-.91Z"/><path class="cls-1" d="M149.28,42.08a1.28,1.28,0,0,0,1.82,0,1.2,1.2,0,0,0,.38-.91V34.43a.46.46,0,0,1,.14-.34A.43.43,0,0,1,152,34a.44.44,0,0,1,.33.13.46.46,0,0,1,.14.34v6.74a2.29,2.29,0,0,1-.17.87,2.16,2.16,0,0,1-.49.7,2.34,2.34,0,0,1-.71.48,2.06,2.06,0,0,1-.86.17,2.11,2.11,0,0,1-.87-.17,2.2,2.2,0,0,1-1.35-2V34.43a.45.45,0,0,1,.47-.47.48.48,0,0,1,.33.13.46.46,0,0,1,.14.34v6.74A1.23,1.23,0,0,0,149.28,42.08Z"/><path class="cls-1" d="M155,34.49a.46.46,0,0,1,.14-.34.43.43,0,0,1,.33-.13h1.76a2.19,2.19,0,0,1,1.58.65,2.15,2.15,0,0,1,.47.71,2.11,2.11,0,0,1,.18.86v.53a2.11,2.11,0,0,1-.24,1,2.2,2.2,0,0,1-.63.76,2.2,2.2,0,0,1,.63.76,2.11,2.11,0,0,1,.24,1v.82a2.25,2.25,0,0,1-.65,1.57,2.34,2.34,0,0,1-.71.48,2.19,2.19,0,0,1-.87.18h-1.76a.48.48,0,0,1-.47-.47Zm3.52,1.75a1.16,1.16,0,0,0-.1-.49,1.2,1.2,0,0,0-.28-.41,1.3,1.3,0,0,0-.41-.28,1.21,1.21,0,0,0-.5-.1H156v3.1h1.29a1.25,1.25,0,0,0,.91-.37,1.26,1.26,0,0,0,.38-.92Zm0,4a1.21,1.21,0,0,0-.1-.5,1.34,1.34,0,0,0-.69-.69,1.21,1.21,0,0,0-.5-.1H156v3.4h1.29a1.25,1.25,0,0,0,.91-.38,1.22,1.22,0,0,0,.38-.91Z"/><path class="cls-1" d="M162.13,43.2a.47.47,0,0,1-.13-.33V34.43a.49.49,0,0,1,.13-.34.45.45,0,0,1,.34-.13.44.44,0,0,1,.33.13.46.46,0,0,1,.14.34v8h2.46a.44.44,0,0,1,.33.13.46.46,0,0,1,.14.34.44.44,0,0,1-.14.33.45.45,0,0,1-.33.14h-2.93A.46.46,0,0,1,162.13,43.2Z"/><path class="cls-1" d="M168.3,43.39a.46.46,0,0,1-.33-.13.45.45,0,0,1-.14-.33v-8.5a.46.46,0,0,1,.47-.47.45.45,0,0,1,.47.47v8.5a.44.44,0,0,1-.13.33A.45.45,0,0,1,168.3,43.39Z"/><path class="cls-1" d="M173,43.32a2.18,2.18,0,0,1-1.2-.8,2.15,2.15,0,0,1-.45-1.35v-5a2.2,2.2,0,0,1,.45-1.36A2.23,2.23,0,0,1,173,34a2,2,0,0,1,.73-.07,2.05,2.05,0,0,1,.7.17,2.3,2.3,0,0,1,.61.38,2.54,2.54,0,0,1,.47.56.43.43,0,0,1,0,.35.47.47,0,0,1-.21.3.39.39,0,0,1-.35,0,.47.47,0,0,1-.29-.22A1.3,1.3,0,0,0,174,35a1.22,1.22,0,0,0-.82-.05,1.3,1.3,0,0,0-1,1.25v5a1.3,1.3,0,0,0,1,1.24,1.22,1.22,0,0,0,.82,0,1.25,1.25,0,0,0,.63-.55.42.42,0,0,1,.29-.21.47.47,0,0,1,.35,0,.51.51,0,0,1,.18.64,2,2,0,0,1-.47.57,2.59,2.59,0,0,1-.61.38,2.31,2.31,0,0,1-.7.16A2,2,0,0,1,173,43.32Z"/><path class="cls-1" d="M146,53.58a2.25,2.25,0,0,1-.38,1.26,2.17,2.17,0,0,1-1,.8l1.35,3.64a.43.43,0,0,1,0,.35.48.48,0,0,1-.27.25.47.47,0,0,1-.35,0,.51.51,0,0,1-.25-.27l-1.41-3.8h-1.2v3.64a.43.43,0,0,1-.13.33.45.45,0,0,1-.34.13.44.44,0,0,1-.33-.13.44.44,0,0,1-.14-.33V51a.46.46,0,0,1,.14-.34.44.44,0,0,1,.33-.13h1.76a2.27,2.27,0,0,1,.86.17,2.22,2.22,0,0,1,.71.48,2.34,2.34,0,0,1,.48.71,2.12,2.12,0,0,1,.18.87Zm-2.23,1.28a1.21,1.21,0,0,0,.91-.37,1.24,1.24,0,0,0,.38-.91v-.82a1.24,1.24,0,0,0-.38-.91,1.19,1.19,0,0,0-.91-.38h-1.29v3.39Z"/><path class="cls-1" d="M148.32,51a.45.45,0,0,1,.47-.47h2.93a.47.47,0,0,1,.34.13.49.49,0,0,1,.13.34.47.47,0,0,1-.13.33.48.48,0,0,1-.34.14h-2.46v3.1h2.16a.49.49,0,0,1,.34.13.47.47,0,0,1-.34.81h-2.16v3.4h2.46a.47.47,0,0,1,.34.13.49.49,0,0,1,.13.34.47.47,0,0,1-.13.33.48.48,0,0,1-.34.14h-2.93a.46.46,0,0,1-.34-.14.43.43,0,0,1-.13-.33Z"/><path class="cls-1" d="M154.56,59.71a.43.43,0,0,1-.13-.33V50.94a.45.45,0,0,1,.47-.47.48.48,0,0,1,.33.13.46.46,0,0,1,.14.34v8h2.46a.48.48,0,0,1,.33.13.46.46,0,0,1,.14.34.44.44,0,0,1-.14.33.49.49,0,0,1-.33.14H154.9A.46.46,0,0,1,154.56,59.71Z"/><path class="cls-1" d="M165.23,59.32a.47.47,0,0,1,0,.35.46.46,0,0,1-.3.22.39.39,0,0,1-.35,0,.45.45,0,0,1-.22-.28c0-.15-.09-.31-.13-.49s-.1-.33-.16-.54l-.18-.69H161c-.08.26-.15.49-.19.69s-.1.39-.15.54l-.13.49a.45.45,0,0,1-.22.28.43.43,0,0,1-.37,0,.45.45,0,0,1-.28-.22.39.39,0,0,1,0-.35l2.34-8.5a.45.45,0,0,1,.17-.25.43.43,0,0,1,.29-.1.42.42,0,0,1,.28.1.41.41,0,0,1,.17.25Zm-1.65-2.4c-.09-.37-.2-.74-.3-1.12s-.22-.77-.32-1.14-.2-.72-.29-1.06l-.24-.9c-.08.26-.16.56-.25.9s-.18.69-.29,1.06-.2.75-.31,1.14-.21.75-.31,1.12Z"/><path class="cls-1" d="M170.29,50.53a.45.45,0,0,1,.47.47.43.43,0,0,1-.13.33.46.46,0,0,1-.34.14h-1.45v8a.43.43,0,0,1-.13.33.48.48,0,0,1-.66,0,.4.4,0,0,1-.14-.33v-8h-1.45a.49.49,0,0,1-.33-.14A.44.44,0,0,1,166,51a.46.46,0,0,1,.14-.34.44.44,0,0,1,.33-.13Z"/><path class="cls-1" d="M173.36,59.9a.44.44,0,0,1-.33-.13.4.4,0,0,1-.14-.33v-8.5a.42.42,0,0,1,.14-.34.44.44,0,0,1,.33-.13.43.43,0,0,1,.33.13.46.46,0,0,1,.14.34v8.5a.44.44,0,0,1-.14.33A.43.43,0,0,1,173.36,59.9Z"/><path class="cls-1" d="M178.59,59.9a2.13,2.13,0,0,1-.88-.17,2.42,2.42,0,0,1-.7-.48,2.25,2.25,0,0,1-.65-1.57v-5a2.3,2.3,0,0,1,.65-1.58,2.21,2.21,0,0,1,.7-.47,2.13,2.13,0,0,1,.88-.18,2.11,2.11,0,0,1,.86.18,2.15,2.15,0,0,1,.71.47,2.34,2.34,0,0,1,.48.71,2.14,2.14,0,0,1,.17.87v5a2.11,2.11,0,0,1-.17.87,2.29,2.29,0,0,1-.48.7,2.34,2.34,0,0,1-.71.48A2.1,2.1,0,0,1,178.59,59.9Zm0-8.49a1.22,1.22,0,0,0-.92.38,1.25,1.25,0,0,0-.37.91v5a1.23,1.23,0,0,0,.37.91,1.29,1.29,0,0,0,1.83,0,1.24,1.24,0,0,0,.38-.91v-5a1.22,1.22,0,0,0-.11-.5,1.46,1.46,0,0,0-.27-.41,1.34,1.34,0,0,0-.42-.28A1.16,1.16,0,0,0,178.59,51.41Z"/><path class="cls-1" d="M188,59.89a.42.42,0,0,1-.31,0,.47.47,0,0,1-.22-.22l-1.2-2.47-.52-1.07c-.18-.38-.36-.74-.54-1.11l-.5-1.06c-.16-.34-.31-.66-.45-.94v6.45a.43.43,0,0,1-.13.33.51.51,0,0,1-.68,0,.47.47,0,0,1-.13-.33v-8.5a.48.48,0,0,1,.1-.29.44.44,0,0,1,.27-.17.65.65,0,0,1,.31,0,.56.56,0,0,1,.22.21l1.18,2.48.52,1.07.54,1.11c.17.36.34.72.51,1.06s.32.65.45.94V50.94a.46.46,0,0,1,.14-.34.43.43,0,0,1,.33-.13.45.45,0,0,1,.47.47v8.5a.46.46,0,0,1-.1.29A.43.43,0,0,1,188,59.89Z"/><path class="cls-1" d="M193.63,58.69a1.26,1.26,0,0,0,.54-1,1.22,1.22,0,0,0-.07-.57,1.32,1.32,0,0,0-.31-.49l-2.34-2.4a2,2,0,0,1-.5-.79,2.23,2.23,0,0,1-.12-.92,2.05,2.05,0,0,1,.27-.91,2.43,2.43,0,0,1,.61-.71,2.21,2.21,0,0,1,1.79-.41A2.29,2.29,0,0,1,195,51.58a.4.4,0,0,1,.05.35.46.46,0,0,1-.23.3.39.39,0,0,1-.35,0,.48.48,0,0,1-.28-.22,1.31,1.31,0,0,0-1.9-.38,1.22,1.22,0,0,0-.5.92,1.26,1.26,0,0,0,.35,1L194.47,56a2.37,2.37,0,0,1,.64,1.77,2.34,2.34,0,0,1-.28.93,2.1,2.1,0,0,1-.63.73,2.45,2.45,0,0,1-.88.41,2.22,2.22,0,0,1-1,0,2.45,2.45,0,0,1-.89-.39,2.21,2.21,0,0,1-.65-.71.49.49,0,0,1,0-.36.51.51,0,0,1,.22-.28.39.39,0,0,1,.35,0,.49.49,0,0,1,.29.22,1.28,1.28,0,0,0,.38.42,1.4,1.4,0,0,0,.53.23A1.3,1.3,0,0,0,193.63,58.69Z"/><path class="cls-1" d="M125.91,16.08a.47.47,0,0,0-.46.46V60.85a.46.46,0,1,0,.92,0V16.54A.47.47,0,0,0,125.91,16.08Z"/><path class="cls-1" d="M51,16.62H38.8A4.1,4.1,0,0,0,36,17.76a4,4,0,0,0-1.25,3v35a4,4,0,0,0,1.25,3,4.09,4.09,0,0,0,7-3v-14h6.91a4.11,4.11,0,1,0,0-8.21H42.91V24.83H51a4.11,4.11,0,1,0,0-8.21Zm2.06,6.17a2.88,2.88,0,0,1-2.06.82H42.3a.61.61,0,0,0-.62.61v9.9a.61.61,0,0,0,.62.61h7.52a2.91,2.91,0,0,1,2.06,4.94,2.84,2.84,0,0,1-2.06.83H42.3a.61.61,0,0,0-.62.61V55.72a2.8,2.8,0,0,1-.82,2.06,2.94,2.94,0,0,1-4.07,0,2.78,2.78,0,0,1-.87-2.08v-35a2.79,2.79,0,0,1,.87-2.08,2.9,2.9,0,0,1,2-.8H51a2.91,2.91,0,0,1,2.06,4.94Z"/><path class="cls-1" d="M79.32,20a11.47,11.47,0,0,0-3.64-2.44,11.25,11.25,0,0,0-4.45-.91H63.89a4,4,0,0,0-4.11,4.11V56a4,4,0,0,0,4.11,4.11A4,4,0,0,0,68,56v-13h3.24a11.24,11.24,0,0,0,4.45-.9,11.51,11.51,0,0,0,6.08-6,11.15,11.15,0,0,0,.92-4.5V28.07a11.33,11.33,0,0,0-.91-4.46A11.73,11.73,0,0,0,79.32,20ZM81.45,31.5a10,10,0,0,1-.81,4,10.53,10.53,0,0,1-2.18,3.22,10.36,10.36,0,0,1-3.26,2.18,10,10,0,0,1-4,.81H67.38a.61.61,0,0,0-.61.61V56A2.88,2.88,0,0,1,66,58,2.88,2.88,0,0,1,61,56V20.73a2.8,2.8,0,0,1,2.88-2.88h7.34a10,10,0,0,1,4,.81,10.07,10.07,0,0,1,5.44,5.44,9.93,9.93,0,0,1,.81,4Z"/><path class="cls-1" d="M74.37,24.93a4.58,4.58,0,0,0-1.43-1,4.12,4.12,0,0,0-1.71-.35H67.38a.61.61,0,0,0-.61.61V35.34a.61.61,0,0,0,.61.62h3.85a4.32,4.32,0,0,0,3.15-1.3,4.23,4.23,0,0,0,1.31-3.16V28.07a4.12,4.12,0,0,0-.35-1.71A4.7,4.7,0,0,0,74.37,24.93Zm.09,6.57a3,3,0,0,1-.94,2.29,3.12,3.12,0,0,1-2.29.94H68v-9.9h3.24a3.13,3.13,0,0,1,1.22.25,3.38,3.38,0,0,1,1.77,1.77,3.09,3.09,0,0,1,.24,1.22Z"/><path class="cls-1" d="M109.94,54.53l-5-13.38a11.4,11.4,0,0,0,5.23-9.65V28.07a11.33,11.33,0,0,0-.91-4.46,11.32,11.32,0,0,0-6.08-6.08,11.33,11.33,0,0,0-4.46-.91H91.42a4.12,4.12,0,0,0-2.86,1.14,4,4,0,0,0-1.25,3V56a4,4,0,0,0,1.25,3,4.12,4.12,0,0,0,2.86,1.14A4,4,0,0,0,95.52,56v-13H96.9l5.36,14.47a4.11,4.11,0,0,0,3.82,2.69,3.85,3.85,0,0,0,1.49-.3,4.15,4.15,0,0,0,2.29-2.14A3.84,3.84,0,0,0,109.94,54.53Zm-1.19,2.62a2.9,2.9,0,0,1-1.64,1.51,2.66,2.66,0,0,1-2.19,0A2.88,2.88,0,0,1,103.41,57L97.9,42.12a.62.62,0,0,0-.58-.4H94.91a.61.61,0,0,0-.61.61V56a2.8,2.8,0,0,1-2.88,2.88,2.89,2.89,0,0,1-2-.8A2.79,2.79,0,0,1,88.54,56V20.73a2.79,2.79,0,0,1,.87-2.08,2.89,2.89,0,0,1,2-.8h7.34a10,10,0,0,1,4,.81,10.07,10.07,0,0,1,5.44,5.44,9.93,9.93,0,0,1,.81,4V31.5a10.16,10.16,0,0,1-5,8.86.61.61,0,0,0-.27.75L108.8,55A2.71,2.71,0,0,1,108.75,57.15Z"/><path class="cls-1" d="M98.76,23.61H94.91a.61.61,0,0,0-.61.61V35.34a.61.61,0,0,0,.61.62h3.85a4.41,4.41,0,0,0,4.46-4.46V28.07a4.46,4.46,0,0,0-4.46-4.46ZM102,31.5a3.19,3.19,0,0,1-3.24,3.23H95.52v-9.9h3.24a3,3,0,0,1,2.29,1,3.09,3.09,0,0,1,1,2.29Z"/><path class="cls-1" d="M25.22,51.62H16.71c.46-1.12,1-2.41,1.67-3.95s1.45-3.41,2.22-5.3,1.56-3.75,2.38-5.64c1.92-4.61,3.56-8.53,5.67-13.55h0s0-.05,0-.07h0A4.68,4.68,0,0,0,29,21.49a4.87,4.87,0,0,0-4.86-4.87H9.84a4,4,0,0,0,0,8H22.36A2.8,2.8,0,0,0,22.29,19H13.83V20.2h8.46a1.57,1.57,0,0,1,0,3.14H9.84a2.75,2.75,0,0,1,0-5.49H24.1a3.65,3.65,0,0,1,3.64,3.64,3.43,3.43,0,0,1-.21,1.19c-2.12,5-3.76,9-5.67,13.57C21,38.14,20.23,40,19.47,41.91S18,45.57,17.26,47.19s-1.31,3.06-1.8,4.24l-.24.56a.62.62,0,0,0,.57.85h9.43a2.8,2.8,0,0,1,2.88,2.88,2.82,2.82,0,0,1-2.88,2.89H10.54a2.78,2.78,0,0,1-2.42-1.27l-.06-.1a3.35,3.35,0,0,1-.4-1.52,2.43,2.43,0,0,1,.26-1.1v0l6-14.33,2.32-5.63,3.6-8.7H18.5c-.67,1.62-2.11,5.12-3.4,8.23l-2.32,5.63-6,14.32a3.69,3.69,0,0,0-.38,1.61A4.64,4.64,0,0,0,7,57.82l.08.14,0,0a4,4,0,0,0,3.46,1.84H25.22a4.11,4.11,0,1,0,0-8.21Z"/><path class="cls-1" d="M167.43,28.73c.33,0,.82-.05.82-.41A.3.3,0,0,0,168,28a3.52,3.52,0,0,1-.45.06.44.44,0,0,1-.46-.48,1.46,1.46,0,0,1,.32-.93h-.62a2.1,2.1,0,0,0-.41,1.11C166.34,28.44,166.77,28.73,167.43,28.73Z"/></svg>